<mxfile host="app.diagrams.net" modified="2022-02-14T15:31:07.581Z" agent="5.0 (Macintosh; Intel Mac OS X 10_15_7) AppleWebKit/537.36 (KHTML, like Gecko) Chrome/98.0.4758.80 Safari/537.36" etag="BlYaYIk2Hc1b9LJzdkLE" version="16.3.0" type="github">
  <diagram id="qq7jzO21DMXIDBAaHvKd" name="第 1 页">
    <mxGraphModel dx="1186" dy="739" grid="1" gridSize="10" guides="1" tooltips="1" connect="1" arrows="1" fold="1" page="1" pageScale="1" pageWidth="827" pageHeight="1169" math="0" shadow="0">
      <root>
        <mxCell id="0" />
        <mxCell id="1" parent="0" />
        <mxCell id="xQ6Xs40lo2beXHcD1UCU-3" value="" style="edgeStyle=orthogonalEdgeStyle;rounded=0;orthogonalLoop=1;jettySize=auto;html=1;" edge="1" parent="1" source="xQ6Xs40lo2beXHcD1UCU-1" target="xQ6Xs40lo2beXHcD1UCU-2">
          <mxGeometry relative="1" as="geometry" />
        </mxCell>
        <mxCell id="xQ6Xs40lo2beXHcD1UCU-1" value="nginx" style="rounded=0;whiteSpace=wrap;html=1;" vertex="1" parent="1">
          <mxGeometry x="354" y="90" width="120" height="60" as="geometry" />
        </mxCell>
        <mxCell id="xQ6Xs40lo2beXHcD1UCU-8" value="" style="edgeStyle=orthogonalEdgeStyle;rounded=0;orthogonalLoop=1;jettySize=auto;html=1;" edge="1" parent="1" source="xQ6Xs40lo2beXHcD1UCU-2" target="xQ6Xs40lo2beXHcD1UCU-7">
          <mxGeometry relative="1" as="geometry" />
        </mxCell>
        <mxCell id="xQ6Xs40lo2beXHcD1UCU-2" value="A项目" style="whiteSpace=wrap;html=1;rounded=0;" vertex="1" parent="1">
          <mxGeometry x="354" y="230" width="120" height="60" as="geometry" />
        </mxCell>
        <mxCell id="xQ6Xs40lo2beXHcD1UCU-5" value="" style="endArrow=classic;html=1;rounded=0;entryX=0.5;entryY=0;entryDx=0;entryDy=0;" edge="1" parent="1" target="xQ6Xs40lo2beXHcD1UCU-1">
          <mxGeometry width="50" height="50" relative="1" as="geometry">
            <mxPoint x="414" y="30" as="sourcePoint" />
            <mxPoint x="440" y="350" as="targetPoint" />
          </mxGeometry>
        </mxCell>
        <mxCell id="xQ6Xs40lo2beXHcD1UCU-6" value="用户请求" style="edgeLabel;html=1;align=center;verticalAlign=middle;resizable=0;points=[];" vertex="1" connectable="0" parent="xQ6Xs40lo2beXHcD1UCU-5">
          <mxGeometry x="-0.3667" relative="1" as="geometry">
            <mxPoint as="offset" />
          </mxGeometry>
        </mxCell>
        <mxCell id="xQ6Xs40lo2beXHcD1UCU-10" value="" style="edgeStyle=orthogonalEdgeStyle;rounded=0;orthogonalLoop=1;jettySize=auto;html=1;" edge="1" parent="1" source="xQ6Xs40lo2beXHcD1UCU-7" target="xQ6Xs40lo2beXHcD1UCU-9">
          <mxGeometry relative="1" as="geometry" />
        </mxCell>
        <mxCell id="xQ6Xs40lo2beXHcD1UCU-13" value="Y" style="edgeLabel;html=1;align=center;verticalAlign=middle;resizable=0;points=[];" vertex="1" connectable="0" parent="xQ6Xs40lo2beXHcD1UCU-10">
          <mxGeometry x="-0.2444" y="-2" relative="1" as="geometry">
            <mxPoint as="offset" />
          </mxGeometry>
        </mxCell>
        <mxCell id="xQ6Xs40lo2beXHcD1UCU-12" value="" style="edgeStyle=orthogonalEdgeStyle;rounded=0;orthogonalLoop=1;jettySize=auto;html=1;" edge="1" parent="1" source="xQ6Xs40lo2beXHcD1UCU-7" target="xQ6Xs40lo2beXHcD1UCU-11">
          <mxGeometry relative="1" as="geometry" />
        </mxCell>
        <mxCell id="xQ6Xs40lo2beXHcD1UCU-14" value="N" style="edgeLabel;html=1;align=center;verticalAlign=middle;resizable=0;points=[];" vertex="1" connectable="0" parent="xQ6Xs40lo2beXHcD1UCU-12">
          <mxGeometry x="0.1" y="2" relative="1" as="geometry">
            <mxPoint as="offset" />
          </mxGeometry>
        </mxCell>
        <mxCell id="xQ6Xs40lo2beXHcD1UCU-7" value="匹配到路由？" style="rhombus;whiteSpace=wrap;html=1;rounded=0;" vertex="1" parent="1">
          <mxGeometry x="374" y="360" width="80" height="80" as="geometry" />
        </mxCell>
        <mxCell id="xQ6Xs40lo2beXHcD1UCU-9" value="渲染" style="whiteSpace=wrap;html=1;rounded=0;" vertex="1" parent="1">
          <mxGeometry x="354" y="530" width="120" height="60" as="geometry" />
        </mxCell>
        <mxCell id="xQ6Xs40lo2beXHcD1UCU-11" value="转发到后端" style="whiteSpace=wrap;html=1;rounded=0;" vertex="1" parent="1">
          <mxGeometry x="514" y="370" width="120" height="60" as="geometry" />
        </mxCell>
      </root>
    </mxGraphModel>
  </diagram>
</mxfile>
